<?xml version="1.0" encoding="utf-8" standalone="no"?>
<!DOCTYPE svg PUBLIC "-//W3C//DTD SVG 1.1//EN"
  "http://www.w3.org/Graphics/SVG/1.1/DTD/svg11.dtd">
<svg xmlns:xlink="http://www.w3.org/1999/xlink" width="360pt" height="288pt" viewBox="0 0 360 288" xmlns="http://www.w3.org/2000/svg" version="1.1">
 <metadata>
  <rdf:RDF xmlns:dc="http://purl.org/dc/elements/1.1/" xmlns:cc="http://creativecommons.org/ns#" xmlns:rdf="http://www.w3.org/1999/02/22-rdf-syntax-ns#">
   <cc:Work>
    <dc:type rdf:resource="http://purl.org/dc/dcmitype/StillImage"/>
    <dc:date>2023-03-14T16:42:19.146154</dc:date>
    <dc:format>image/svg+xml</dc:format>
    <dc:creator>
     <cc:Agent>
      <dc:title>Matplotlib v3.5.2, https://matplotlib.org/</dc:title>
     </cc:Agent>
    </dc:creator>
   </cc:Work>
  </rdf:RDF>
 </metadata>
 <defs>
  <style type="text/css">*{stroke-linejoin: round; stroke-linecap: butt}</style>
 </defs>
 <g id="figure_1">
  <g id="patch_1">
   <path d="M 0 288 
L 360 288 
L 360 0 
L 0 0 
z
" style="fill: #ffffff"/>
  </g>
  <g id="axes_1">
   <g id="patch_2">
    <path d="M 45 256.32 
L 324 256.32 
L 324 34.56 
L 45 34.56 
z
" style="fill: #ffffff"/>
   </g>
   <g id="patch_3">
    <path d="M 80.128433 256.32 
L 87.326473 256.32 
L 87.326473 45.12 
L 80.128433 45.12 
z
" clip-path="url(#p4dd787a51e)" style="fill: #1f77b4; opacity: 0.4"/>
   </g>
   <g id="patch_4">
    <path d="M 87.326473 256.32 
L 94.524512 256.32 
L 94.524512 223.772667 
L 87.326473 223.772667 
z
" clip-path="url(#p4dd787a51e)" style="fill: #1f77b4; opacity: 0.4"/>
   </g>
   <g id="patch_5">
    <path d="M 94.524512 256.32 
L 101.722551 256.32 
L 101.722551 233.906452 
L 94.524512 233.906452 
z
" clip-path="url(#p4dd787a51e)" style="fill: #1f77b4; opacity: 0.4"/>
   </g>
   <g id="patch_6">
    <path d="M 101.722551 256.32 
L 108.92059 256.32 
L 108.92059 237.840745 
L 101.722551 237.840745 
z
" clip-path="url(#p4dd787a51e)" style="fill: #1f77b4; opacity: 0.4"/>
   </g>
   <g id="patch_7">
    <path d="M 108.92059 256.32 
L 116.118629 256.32 
L 116.118629 239.092566 
L 108.92059 239.092566 
z
" clip-path="url(#p4dd787a51e)" style="fill: #1f77b4; opacity: 0.4"/>
   </g>
   <g id="patch_8">
    <path d="M 116.118629 256.32 
L 123.316668 256.32 
L 123.316668 237.721524 
L 116.118629 237.721524 
z
" clip-path="url(#p4dd787a51e)" style="fill: #1f77b4; opacity: 0.4"/>
   </g>
   <g id="patch_9">
    <path d="M 123.316668 256.32 
L 130.514707 256.32 
L 130.514707 237.691719 
L 123.316668 237.691719 
z
" clip-path="url(#p4dd787a51e)" style="fill: #1f77b4; opacity: 0.4"/>
   </g>
   <g id="patch_10">
    <path d="M 130.514707 256.32 
L 137.712746 256.32 
L 137.712746 237.572498 
L 130.514707 237.572498 
z
" clip-path="url(#p4dd787a51e)" style="fill: #1f77b4; opacity: 0.4"/>
   </g>
   <g id="patch_11">
    <path d="M 137.712746 256.32 
L 144.910785 256.32 
L 144.910785 236.05243 
L 137.712746 236.05243 
z
" clip-path="url(#p4dd787a51e)" style="fill: #1f77b4; opacity: 0.4"/>
   </g>
   <g id="patch_12">
    <path d="M 144.910785 256.32 
L 152.108824 256.32 
L 152.108824 235.217883 
L 144.910785 235.217883 
z
" clip-path="url(#p4dd787a51e)" style="fill: #1f77b4; opacity: 0.4"/>
   </g>
   <g id="patch_13">
    <path d="M 152.108824 256.32 
L 159.306863 256.32 
L 159.306863 233.876647 
L 152.108824 233.876647 
z
" clip-path="url(#p4dd787a51e)" style="fill: #1f77b4; opacity: 0.4"/>
   </g>
   <g id="patch_14">
    <path d="M 159.306863 256.32 
L 166.504902 256.32 
L 166.504902 234.353531 
L 159.306863 234.353531 
z
" clip-path="url(#p4dd787a51e)" style="fill: #1f77b4; opacity: 0.4"/>
   </g>
   <g id="patch_15">
    <path d="M 166.504902 256.32 
L 173.702941 256.32 
L 173.702941 231.969111 
L 166.504902 231.969111 
z
" clip-path="url(#p4dd787a51e)" style="fill: #1f77b4; opacity: 0.4"/>
   </g>
   <g id="patch_16">
    <path d="M 173.702941 256.32 
L 180.90098 256.32 
L 180.90098 232.445995 
L 173.702941 232.445995 
z
" clip-path="url(#p4dd787a51e)" style="fill: #1f77b4; opacity: 0.4"/>
   </g>
   <g id="patch_17">
    <path d="M 180.90098 256.32 
L 188.09902 256.32 
L 188.09902 232.147942 
L 180.90098 232.147942 
z
" clip-path="url(#p4dd787a51e)" style="fill: #1f77b4; opacity: 0.4"/>
   </g>
   <g id="patch_18">
    <path d="M 188.09902 256.32 
L 195.297059 256.32 
L 195.297059 234.830415 
L 188.09902 234.830415 
z
" clip-path="url(#p4dd787a51e)" style="fill: #1f77b4; opacity: 0.4"/>
   </g>
   <g id="patch_19">
    <path d="M 195.297059 256.32 
L 202.495098 256.32 
L 202.495098 232.445995 
L 195.297059 232.445995 
z
" clip-path="url(#p4dd787a51e)" style="fill: #1f77b4; opacity: 0.4"/>
   </g>
   <g id="patch_20">
    <path d="M 202.495098 256.32 
L 209.693137 256.32 
L 209.693137 234.711194 
L 202.495098 234.711194 
z
" clip-path="url(#p4dd787a51e)" style="fill: #1f77b4; opacity: 0.4"/>
   </g>
   <g id="patch_21">
    <path d="M 209.693137 256.32 
L 216.891176 256.32 
L 216.891176 235.903404 
L 209.693137 235.903404 
z
" clip-path="url(#p4dd787a51e)" style="fill: #1f77b4; opacity: 0.4"/>
   </g>
   <g id="patch_22">
    <path d="M 216.891176 256.32 
L 224.089215 256.32 
L 224.089215 238.079187 
L 216.891176 238.079187 
z
" clip-path="url(#p4dd787a51e)" style="fill: #1f77b4; opacity: 0.4"/>
   </g>
   <g id="patch_23">
    <path d="M 224.089215 256.32 
L 231.287254 256.32 
L 231.287254 241.357765 
L 224.089215 241.357765 
z
" clip-path="url(#p4dd787a51e)" style="fill: #1f77b4; opacity: 0.4"/>
   </g>
   <g id="patch_24">
    <path d="M 231.287254 256.32 
L 238.485293 256.32 
L 238.485293 242.669196 
L 231.287254 242.669196 
z
" clip-path="url(#p4dd787a51e)" style="fill: #1f77b4; opacity: 0.4"/>
   </g>
   <g id="patch_25">
    <path d="M 238.485293 256.32 
L 245.683332 256.32 
L 245.683332 246.841931 
L 238.485293 246.841931 
z
" clip-path="url(#p4dd787a51e)" style="fill: #1f77b4; opacity: 0.4"/>
   </g>
   <g id="patch_26">
    <path d="M 245.683332 256.32 
L 252.881371 256.32 
L 252.881371 249.047519 
L 245.683332 249.047519 
z
" clip-path="url(#p4dd787a51e)" style="fill: #1f77b4; opacity: 0.4"/>
   </g>
   <g id="patch_27">
    <path d="M 252.881371 256.32 
L 260.07941 256.32 
L 260.07941 251.670381 
L 252.881371 251.670381 
z
" clip-path="url(#p4dd787a51e)" style="fill: #1f77b4; opacity: 0.4"/>
   </g>
   <g id="patch_28">
    <path d="M 260.07941 256.32 
L 267.277449 256.32 
L 267.277449 252.475123 
L 260.07941 252.475123 
z
" clip-path="url(#p4dd787a51e)" style="fill: #1f77b4; opacity: 0.4"/>
   </g>
   <g id="patch_29">
    <path d="M 267.277449 256.32 
L 274.475488 256.32 
L 274.475488 253.339475 
L 267.277449 253.339475 
z
" clip-path="url(#p4dd787a51e)" style="fill: #1f77b4; opacity: 0.4"/>
   </g>
   <g id="patch_30">
    <path d="M 274.475488 256.32 
L 281.673527 256.32 
L 281.673527 254.770127 
L 274.475488 254.770127 
z
" clip-path="url(#p4dd787a51e)" style="fill: #1f77b4; opacity: 0.4"/>
   </g>
   <g id="patch_31">
    <path d="M 281.673527 256.32 
L 288.871567 256.32 
L 288.871567 255.723895 
L 281.673527 255.723895 
z
" clip-path="url(#p4dd787a51e)" style="fill: #1f77b4; opacity: 0.4"/>
   </g>
   <g id="matplotlib.axis_1">
    <g id="xtick_1">
     <g id="line2d_1">
      <defs>
       <path id="mda2a74c7e8" d="M 0 0 
L 0 3.5 
" style="stroke: #000000; stroke-width: 0.8"/>
      </defs>
      <g>
       <use xlink:href="#mda2a74c7e8" x="76.449709" y="256.32" style="stroke: #000000; stroke-width: 0.8"/>
      </g>
     </g>
     <g id="text_1">
      <text style="font: 10px 'sans-serif'; text-anchor: middle" x="76.449709" y="270.918437" transform="rotate(-0, 76.449709, 270.918437)">2</text>
     </g>
    </g>
    <g id="xtick_2">
     <g id="line2d_2">
      <g>
       <use xlink:href="#mda2a74c7e8" x="109.402506" y="256.32" style="stroke: #000000; stroke-width: 0.8"/>
      </g>
     </g>
     <g id="text_2">
      <text style="font: 10px 'sans-serif'; text-anchor: middle" x="109.402506" y="270.918437" transform="rotate(-0, 109.402506, 270.918437)">4</text>
     </g>
    </g>
    <g id="xtick_3">
     <g id="line2d_3">
      <g>
       <use xlink:href="#mda2a74c7e8" x="142.355303" y="256.32" style="stroke: #000000; stroke-width: 0.8"/>
      </g>
     </g>
     <g id="text_3">
      <text style="font: 10px 'sans-serif'; text-anchor: middle" x="142.355303" y="270.918437" transform="rotate(-0, 142.355303, 270.918437)">6</text>
     </g>
    </g>
    <g id="xtick_4">
     <g id="line2d_4">
      <g>
       <use xlink:href="#mda2a74c7e8" x="175.3081" y="256.32" style="stroke: #000000; stroke-width: 0.8"/>
      </g>
     </g>
     <g id="text_4">
      <text style="font: 10px 'sans-serif'; text-anchor: middle" x="175.3081" y="270.918437" transform="rotate(-0, 175.3081, 270.918437)">8</text>
     </g>
    </g>
    <g id="xtick_5">
     <g id="line2d_5">
      <g>
       <use xlink:href="#mda2a74c7e8" x="208.260896" y="256.32" style="stroke: #000000; stroke-width: 0.8"/>
      </g>
     </g>
     <g id="text_5">
      <text style="font: 10px 'sans-serif'; text-anchor: middle" x="208.260896" y="270.918437" transform="rotate(-0, 208.260896, 270.918437)">10</text>
     </g>
    </g>
    <g id="xtick_6">
     <g id="line2d_6">
      <g>
       <use xlink:href="#mda2a74c7e8" x="241.213693" y="256.32" style="stroke: #000000; stroke-width: 0.8"/>
      </g>
     </g>
     <g id="text_6">
      <text style="font: 10px 'sans-serif'; text-anchor: middle" x="241.213693" y="270.918437" transform="rotate(-0, 241.213693, 270.918437)">12</text>
     </g>
    </g>
    <g id="xtick_7">
     <g id="line2d_7">
      <g>
       <use xlink:href="#mda2a74c7e8" x="274.16649" y="256.32" style="stroke: #000000; stroke-width: 0.8"/>
      </g>
     </g>
     <g id="text_7">
      <text style="font: 10px 'sans-serif'; text-anchor: middle" x="274.16649" y="270.918437" transform="rotate(-0, 274.16649, 270.918437)">14</text>
     </g>
    </g>
    <g id="xtick_8">
     <g id="line2d_8">
      <g>
       <use xlink:href="#mda2a74c7e8" x="307.119286" y="256.32" style="stroke: #000000; stroke-width: 0.8"/>
      </g>
     </g>
     <g id="text_8">
      <text style="font: 10px 'sans-serif'; text-anchor: middle" x="307.119286" y="270.918437" transform="rotate(-0, 307.119286, 270.918437)">16</text>
     </g>
    </g>
   </g>
   <g id="matplotlib.axis_2">
    <g id="ytick_1">
     <g id="line2d_9">
      <defs>
       <path id="ma5fd1d2adc" d="M 0 0 
L -3.5 0 
" style="stroke: #000000; stroke-width: 0.8"/>
      </defs>
      <g>
       <use xlink:href="#ma5fd1d2adc" x="45" y="256.32" style="stroke: #000000; stroke-width: 0.8"/>
      </g>
     </g>
     <g id="text_9">
      <text style="font: 10px 'sans-serif'; text-anchor: end" x="38" y="260.119219" transform="rotate(-0, 38, 260.119219)">0.0</text>
     </g>
    </g>
    <g id="ytick_2">
     <g id="line2d_10">
      <g>
       <use xlink:href="#ma5fd1d2adc" x="45" y="226.585221" style="stroke: #000000; stroke-width: 0.8"/>
      </g>
     </g>
     <g id="text_10">
      <text style="font: 10px 'sans-serif'; text-anchor: end" x="38" y="230.38444" transform="rotate(-0, 38, 230.38444)">0.1</text>
     </g>
    </g>
    <g id="ytick_3">
     <g id="line2d_11">
      <g>
       <use xlink:href="#ma5fd1d2adc" x="45" y="196.850442" style="stroke: #000000; stroke-width: 0.8"/>
      </g>
     </g>
     <g id="text_11">
      <text style="font: 10px 'sans-serif'; text-anchor: end" x="38" y="200.649661" transform="rotate(-0, 38, 200.649661)">0.2</text>
     </g>
    </g>
    <g id="ytick_4">
     <g id="line2d_12">
      <g>
       <use xlink:href="#ma5fd1d2adc" x="45" y="167.115663" style="stroke: #000000; stroke-width: 0.8"/>
      </g>
     </g>
     <g id="text_12">
      <text style="font: 10px 'sans-serif'; text-anchor: end" x="38" y="170.914881" transform="rotate(-0, 38, 170.914881)">0.3</text>
     </g>
    </g>
    <g id="ytick_5">
     <g id="line2d_13">
      <g>
       <use xlink:href="#ma5fd1d2adc" x="45" y="137.380884" style="stroke: #000000; stroke-width: 0.8"/>
      </g>
     </g>
     <g id="text_13">
      <text style="font: 10px 'sans-serif'; text-anchor: end" x="38" y="141.180102" transform="rotate(-0, 38, 141.180102)">0.4</text>
     </g>
    </g>
    <g id="ytick_6">
     <g id="line2d_14">
      <g>
       <use xlink:href="#ma5fd1d2adc" x="45" y="107.646105" style="stroke: #000000; stroke-width: 0.8"/>
      </g>
     </g>
     <g id="text_14">
      <text style="font: 10px 'sans-serif'; text-anchor: end" x="38" y="111.445323" transform="rotate(-0, 38, 111.445323)">0.5</text>
     </g>
    </g>
    <g id="ytick_7">
     <g id="line2d_15">
      <g>
       <use xlink:href="#ma5fd1d2adc" x="45" y="77.911325" style="stroke: #000000; stroke-width: 0.8"/>
      </g>
     </g>
     <g id="text_15">
      <text style="font: 10px 'sans-serif'; text-anchor: end" x="38" y="81.710544" transform="rotate(-0, 38, 81.710544)">0.6</text>
     </g>
    </g>
    <g id="ytick_8">
     <g id="line2d_16">
      <g>
       <use xlink:href="#ma5fd1d2adc" x="45" y="48.176546" style="stroke: #000000; stroke-width: 0.8"/>
      </g>
     </g>
     <g id="text_16">
      <text style="font: 10px 'sans-serif'; text-anchor: end" x="38" y="51.975765" transform="rotate(-0, 38, 51.975765)">0.7</text>
     </g>
    </g>
    <g id="text_17">
     <text style="font: 10px 'sans-serif'; text-anchor: middle" x="16.017187" y="145.44" transform="rotate(-90, 16.017187, 145.44)">Density</text>
    </g>
   </g>
   <g id="line2d_17">
    <path d="M 57.681818 255.718344 
L 58.956373 255.316646 
L 60.230927 254.693622 
L 61.505482 253.757442 
L 62.780037 252.395022 
L 64.054591 250.475572 
L 65.329146 247.858987 
L 66.6037 244.409843 
L 67.878255 240.016805 
L 69.15281 234.615957 
L 70.427364 228.215076 
L 71.701919 220.91458 
L 74.251028 204.543211 
L 76.800137 188.3018 
L 78.074692 181.367723 
L 79.349246 175.814876 
L 80.623801 171.98662 
L 81.898355 170.095624 
L 83.17291 170.199534 
L 84.447465 172.197588 
L 85.722019 175.848323 
L 86.996574 180.804615 
L 89.545683 192.993735 
L 92.094792 205.615803 
L 93.369347 211.339247 
L 94.643901 216.437485 
L 95.918456 220.838311 
L 97.193011 224.536047 
L 98.467565 227.573231 
L 99.74212 230.022056 
L 101.016674 231.96818 
L 102.291229 233.498365 
L 103.565783 234.692344 
L 104.840338 235.618531 
L 106.114893 236.332765 
L 107.389447 236.879067 
L 109.938556 237.596462 
L 112.487666 237.962945 
L 115.036775 238.10395 
L 118.860439 238.081396 
L 126.507766 237.730385 
L 131.605984 237.327278 
L 137.978757 236.569011 
L 148.175194 235.290733 
L 163.469849 233.564588 
L 171.117177 232.663612 
L 174.940841 232.463766 
L 178.764504 232.517288 
L 183.862723 232.881386 
L 190.235496 233.370869 
L 201.706487 234.043317 
L 205.530151 234.570778 
L 209.353815 235.2835 
L 213.177478 236.168053 
L 217.001142 237.238982 
L 222.09936 238.909681 
L 232.295797 242.51988 
L 238.66857 245.020041 
L 246.315898 248.003811 
L 251.414116 249.693171 
L 255.23778 250.746971 
L 259.061444 251.602403 
L 264.159662 252.48346 
L 283.277981 255.288745 
L 288.376199 255.805111 
L 293.474418 256.116282 
L 299.84719 256.277594 
L 311.318182 256.319382 
L 311.318182 256.319382 
" clip-path="url(#p4dd787a51e)" style="fill: none; stroke: #1f77b4; stroke-width: 1.5; stroke-linecap: square"/>
   </g>
   <g id="patch_32">
    <path d="M 45 256.32 
L 45 34.56 
" style="fill: none; stroke: #000000; stroke-width: 0.8; stroke-linejoin: miter; stroke-linecap: square"/>
   </g>
   <g id="patch_33">
    <path d="M 324 256.32 
L 324 34.56 
" style="fill: none; stroke: #000000; stroke-width: 0.8; stroke-linejoin: miter; stroke-linecap: square"/>
   </g>
   <g id="patch_34">
    <path d="M 45 256.32 
L 324 256.32 
" style="fill: none; stroke: #000000; stroke-width: 0.8; stroke-linejoin: miter; stroke-linecap: square"/>
   </g>
   <g id="patch_35">
    <path d="M 45 34.56 
L 324 34.56 
" style="fill: none; stroke: #000000; stroke-width: 0.8; stroke-linejoin: miter; stroke-linecap: square"/>
   </g>
  </g>
 </g>
 <defs>
  <clipPath id="p4dd787a51e">
   <rect x="45" y="34.56" width="279" height="221.76"/>
  </clipPath>
 </defs>
</svg>
